<svg xmlns="http://www.w3.org/2000/svg" width="100" height="100" viewBox="0 0 100 100"><defs><style>.a{fill:#bfc9d8;}.b{fill:#edf0f7;}.c{fill:#cfd7e2;}.d{fill:#dee7f0;}.e{fill:#9aa1b1;}</style></defs><g transform="translate(-2 -2)"><g transform="translate(5.333 5.333)"><circle class="a" cx="11.667" cy="11.667" r="11.667" transform="translate(70)"/><circle class="b" cx="5" cy="5" r="5" transform="translate(76.667 6.667)"/><path class="b" d="M62.287,18.583a11.6,11.6,0,0,1-13.267,0A4.968,4.968,0,0,1,53.987,14H57.32A4.968,4.968,0,0,1,62.287,18.583Z" transform="translate(26.013 2.667)"/><path class="c" d="M59.784,14.363A5,5,0,1,1,53.551,8.13a5.166,5.166,0,0,0-.217,1.45,5,5,0,0,0,5,5,5.167,5.167,0,0,0,1.45-.217Z" transform="translate(26.666 -1.247)"/><path class="c" d="M62.287,18.517a11.6,11.6,0,0,1-13.267,0A4.972,4.972,0,0,1,52.687,14.1a11.485,11.485,0,0,0,7.967,3.167A12.228,12.228,0,0,0,62,17.183,5,5,0,0,1,62.287,18.517Z" transform="translate(26.013 2.733)"/><circle class="a" cx="11.667" cy="11.667" r="11.667" transform="translate(70 70)"/><circle class="b" cx="5" cy="5" r="5" transform="translate(76.667 76.667)"/><path class="b" d="M62.287,60.583a11.6,11.6,0,0,1-13.267,0A4.968,4.968,0,0,1,53.987,56H57.32a4.968,4.968,0,0,1,4.967,4.583Z" transform="translate(26.013 30.667)"/><path class="c" d="M59.784,56.363a5,5,0,1,1-6.233-6.233,5.166,5.166,0,0,0-.217,1.45,5,5,0,0,0,5,5A5.166,5.166,0,0,0,59.784,56.363Z" transform="translate(26.666 26.753)"/><path class="c" d="M62.287,60.517a11.6,11.6,0,0,1-13.267,0A4.972,4.972,0,0,1,52.687,56.1a11.485,11.485,0,0,0,7.967,3.167A12.227,12.227,0,0,0,62,59.183a5,5,0,0,1,.283,1.333Z" transform="translate(26.013 30.733)"/><circle class="a" cx="11.667" cy="11.667" r="11.667"/><circle class="b" cx="5" cy="5" r="5" transform="translate(6.667 6.667)"/><path class="b" d="M20.287,18.583a11.6,11.6,0,0,1-13.267,0A4.968,4.968,0,0,1,11.987,14H15.32a4.968,4.968,0,0,1,4.967,4.583Z" transform="translate(-1.987 2.667)"/><path class="c" d="M17.784,14.363A5,5,0,1,1,11.551,8.13a5.167,5.167,0,0,0-.217,1.45,5,5,0,0,0,5,5A5.167,5.167,0,0,0,17.784,14.363Z" transform="translate(-1.334 -1.247)"/><path class="c" d="M20.287,18.517a11.6,11.6,0,0,1-13.267,0A4.972,4.972,0,0,1,10.687,14.1a11.485,11.485,0,0,0,7.967,3.167A12.229,12.229,0,0,0,20,17.183a5,5,0,0,1,.283,1.333Z" transform="translate(-1.987 2.733)"/><circle class="a" cx="11.667" cy="11.667" r="11.667" transform="translate(0 70)"/><circle class="b" cx="5" cy="5" r="5" transform="translate(6.667 76.667)"/><path class="b" d="M20.287,60.583a11.6,11.6,0,0,1-13.267,0A4.968,4.968,0,0,1,11.987,56H15.32a4.968,4.968,0,0,1,4.967,4.583Z" transform="translate(-1.987 30.667)"/><path class="c" d="M17.784,56.363a5,5,0,1,1-6.233-6.233,5.167,5.167,0,0,0-.217,1.45,5,5,0,0,0,5,5A5.166,5.166,0,0,0,17.784,56.363Z" transform="translate(-1.334 26.753)"/><path class="c" d="M20.287,60.517a11.6,11.6,0,0,1-13.267,0A4.972,4.972,0,0,1,10.687,56.1a11.485,11.485,0,0,0,7.967,3.167A12.226,12.226,0,0,0,20,59.183a5,5,0,0,1,.283,1.333Z" transform="translate(-1.987 30.733)"/><path class="a" d="M66.8,27.351a16.6,16.6,0,0,0-23.472,0A16.6,16.6,0,1,0,19.862,50.824l17.6,17.6a8.3,8.3,0,0,0,11.737,0l17.6-17.6a16.6,16.6,0,0,0,0-23.473Z" transform="translate(3.333 8.326)"/><path class="d" d="M40.333,41.667H37V35h3.333a3.333,3.333,0,0,1,0,6.667Z" transform="translate(18 16.667)"/><path class="d" d="M26.333,41.667h3.333V35H26.333a3.333,3.333,0,1,0,0,6.667Z" transform="translate(8.667 16.667)"/><path class="b" d="M36,54A10,10,0,0,1,26,44V39a10,10,0,0,1,20,0v5A10,10,0,0,1,36,54Z" transform="translate(10.667 12.667)"/><path class="c" d="M45.117,47.763A10,10,0,0,1,26,43.647v-5a10.01,10.01,0,0,1,5.883-9.117A9.967,9.967,0,0,0,31,33.647v5a10,10,0,0,0,14.117,9.117Z" transform="translate(10.667 13.02)"/></g><g transform="translate(2 2)"><path class="e" d="M95.448,76.695a49.817,49.817,0,0,0,0-49.39A13.333,13.333,0,1,0,76.695,8.552a49.817,49.817,0,0,0-49.39,0A13.333,13.333,0,1,0,8.552,27.3a49.817,49.817,0,0,0,0,49.39A13.333,13.333,0,1,0,27.3,95.448a49.817,49.817,0,0,0,49.39,0A13.333,13.333,0,1,0,95.448,76.695ZM98.667,52A46.548,46.548,0,0,1,92.62,74.927,13.288,13.288,0,0,0,74.1,90.333H58.667a4.99,4.99,0,0,1-4.93-4.308,9.885,9.885,0,0,0,5.308-2.76l17.6-17.6a18.113,18.113,0,0,0,5.3-12c.017,0,.028.008.045.008h1.667A8.343,8.343,0,0,0,92,45.342v-15.7a1.5,1.5,0,0,0-.055-.27c.23-.092.453-.193.675-.3A46.548,46.548,0,0,1,98.667,52ZM50.822,42.188a1.715,1.715,0,0,0,2.357,0A14.931,14.931,0,1,1,74.294,63.305l-17.605,17.6a6.792,6.792,0,0,1-9.378,0l-17.6-17.6A14.931,14.931,0,1,1,50.822,42.188ZM87,20.333A3.333,3.333,0,1,1,90.333,17,3.333,3.333,0,0,1,87,20.333Zm-1.667,3.333h3.333A3.277,3.277,0,0,1,91.755,25.8a9.985,9.985,0,0,1-9.51,0,3.275,3.275,0,0,1,3.088-2.128ZM87,7a9.983,9.983,0,0,1,7.41,16.692,6.688,6.688,0,0,0-2.348-2.4,6.667,6.667,0,1,0-10.123,0,6.667,6.667,0,0,0-2.348,2.4A9.983,9.983,0,0,1,87,7ZM52,5.333a46.568,46.568,0,0,1,22.927,6.045,13.273,13.273,0,0,0,13.74,18.84V45.333a5,5,0,0,1-5,5H82a1.424,1.424,0,0,0-.167.035A18.252,18.252,0,0,0,52,38.75,18.077,18.077,0,0,0,43.667,34.8V23.667a8.343,8.343,0,0,0-8.333-8.333H30.217a13.188,13.188,0,0,0-1.143-3.955A46.568,46.568,0,0,1,52,5.333ZM7,17a10,10,0,1,1,17.41,6.692,6.688,6.688,0,0,0-2.348-2.4,6.667,6.667,0,1,0-10.123,0,6.667,6.667,0,0,0-2.348,2.4A9.952,9.952,0,0,1,7,17Zm10,3.333A3.333,3.333,0,1,1,20.333,17,3.333,3.333,0,0,1,17,20.333Zm-1.667,3.333h3.333A3.277,3.277,0,0,1,21.755,25.8a9.985,9.985,0,0,1-9.51,0,3.275,3.275,0,0,1,3.088-2.128ZM5.333,52A46.548,46.548,0,0,1,11.38,29.073,13.288,13.288,0,0,0,30.217,18.667h5.117a5,5,0,0,1,5,5V34.485h-.068a18.232,18.232,0,0,0-18.1,15.883A1.5,1.5,0,0,0,22,50.333a8.343,8.343,0,0,0-8.333,8.333V74.1a13.1,13.1,0,0,0-2.287.822A46.548,46.548,0,0,1,5.333,52ZM7,87a10,10,0,1,1,17.41,6.692,6.688,6.688,0,0,0-2.348-2.4,6.667,6.667,0,1,0-10.123,0,6.667,6.667,0,0,0-2.348,2.4A9.952,9.952,0,0,1,7,87Zm6.667,0A3.333,3.333,0,1,1,17,90.333,3.333,3.333,0,0,1,13.667,87Zm-1.422,8.795a3.275,3.275,0,0,1,3.088-2.128h3.333a3.277,3.277,0,0,1,3.088,2.128,9.985,9.985,0,0,1-9.51,0Zm16.833-3.167A13.3,13.3,0,0,0,17,73.667v-15a5,5,0,0,1,5-5c.015,0,.028-.008.045-.008a18.113,18.113,0,0,0,5.305,12l17.6,17.607A9.888,9.888,0,0,0,50.4,86.047a8.317,8.317,0,0,0,8.262,7.62H73a46.537,46.537,0,0,1-43.922-1.045Zm53.167,3.167a3.275,3.275,0,0,1,3.088-2.128h3.333a3.277,3.277,0,0,1,3.088,2.128A9.985,9.985,0,0,1,82.245,95.795ZM87,90.333A3.333,3.333,0,1,1,90.333,87,3.333,3.333,0,0,1,87,90.333Zm7.41,3.358a6.688,6.688,0,0,0-2.348-2.4,6.667,6.667,0,1,0-10.123,0,6.667,6.667,0,0,0-2.348,2.4,10,10,0,1,1,14.82,0Z" transform="translate(-2 -2)"/><path class="e" d="M22,43a5,5,0,0,0,5,5h1.667a1.667,1.667,0,0,0,1.667-1.667V39.665a8.333,8.333,0,0,1,16.667,0v6.667A6.667,6.667,0,0,1,40.333,53a2.372,2.372,0,0,1-1.667-.69l-.488-.488a1.667,1.667,0,1,0-2.357,2.357l.489.486a5.638,5.638,0,0,0,4.023,1.668A10.01,10.01,0,0,0,50.183,48h.15a5,5,0,1,0,0-10H50.2a11.652,11.652,0,0,0-23.067,0H27A5,5,0,0,0,22,43Zm30,0a1.667,1.667,0,0,1-1.667,1.667V41.331A1.667,1.667,0,0,1,52,43ZM25.333,43A1.667,1.667,0,0,1,27,41.331v3.333A1.667,1.667,0,0,1,25.333,43Z" transform="translate(11.333 15.335)"/><circle class="e" cx="1.667" cy="1.667" r="1.667" transform="translate(44.167 53.333)"/><circle class="e" cx="1.667" cy="1.667" r="1.667" transform="translate(52.5 53.333)"/><path class="e" d="M33.822,38.487a.687.687,0,0,1-.977,0,1.668,1.668,0,0,0-2.357,2.36,4.032,4.032,0,0,0,5.69,0,1.668,1.668,0,0,0-2.357-2.36Z" transform="translate(16.666 22)"/></g></g></svg>