<svg xmlns="http://www.w3.org/2000/svg" width="100" height="99.972" viewBox="0 0 100 99.972"><defs><style>.a{fill:#dee7f0;}.b{fill:#bfc9d8;}.c{fill:#fff;}.d{fill:#edf0f7;}.e{fill:#9aa1b1;}</style></defs><g transform="translate(-2 -2.017)"><g transform="translate(3.667 3.655)"><path class="a" d="M3,16H76.333V69.333H3Z" transform="translate(-3 5.667)"/><path class="a" d="M76.333,42.017V69.333H3V16H19.667v8.333a28.2,28.2,0,0,0,9.067,20.733,24.99,24.99,0,0,1,47.6-3.05Z" transform="translate(-3 5.667)"/><path class="b" d="M71.944,71.944a4.788,4.788,0,0,1-6.915-.152l-22.548-24.6,4.713-4.713,24.6,22.548a4.79,4.79,0,0,1,.15,6.915Z" transform="translate(23.321 23.321)"/><circle class="b" cx="25" cy="25" r="25" transform="translate(30 30)"/><circle class="c" cx="18.333" cy="18.333" r="18.333" transform="translate(36.667 36.667)"/><path class="d" d="M43.333,25A18.323,18.323,0,1,0,56.3,30.367,18.333,18.333,0,0,0,43.333,25Zm10,30A25.01,25.01,0,0,1,28.667,33.933a18.323,18.323,0,0,1,29.667,14.4A17.917,17.917,0,0,1,57.167,54.7a24.277,24.277,0,0,1-3.833.3Z" transform="translate(11.667 11.667)"/><g transform="translate(6.667 28.333)"><path class="b" d="M9,20H25.667v6.667H9Z" transform="translate(-5.667 -20)"/><path class="d" d="M7,32h6.667v6.667H7Z" transform="translate(-7 -12)"/><path class="d" d="M17,32h6.667v6.667H17Z" transform="translate(-0.333 -12)"/><path class="d" d="M17,40h6.667v6.667H17Z" transform="translate(-0.333 -6.667)"/><path class="d" d="M7,40h6.667v6.667H7Z" transform="translate(-7 -6.667)"/></g><path class="b" d="M59,3,49,14.667h5V41.333H64V14.667h5Z" transform="translate(27.667 -3)"/></g><g transform="translate(2 2.017)"><path class="e" d="M99.907,82.12,80.9,64.695a26.532,26.532,0,0,0-2.23-32.275V16.667A1.667,1.667,0,0,0,77,15H3.667A1.667,1.667,0,0,0,2,16.667V70a1.667,1.667,0,0,0,1.667,1.667H43.18a26.518,26.518,0,0,0,30.182.563L90.788,91.24A6.388,6.388,0,0,0,95.4,93.333h.147A6.455,6.455,0,0,0,99.907,82.12ZM5.333,18.333h70V29.217a26.613,26.613,0,0,0-41.982,12.45H32v-5A1.667,1.667,0,0,0,30.333,35H23.667V31.667h6.667A1.667,1.667,0,0,0,32,30V23.333a1.667,1.667,0,0,0-1.667-1.667H13.667A1.667,1.667,0,0,0,12,23.333V30a1.667,1.667,0,0,0,1.667,1.667h6.667V35H13.667A1.667,1.667,0,0,0,12,36.667v5H10.333a1.667,1.667,0,0,0-1.667,1.667V50a1.667,1.667,0,0,0,1.667,1.667H12V55H10.333a1.667,1.667,0,0,0-1.667,1.667v6.667A1.667,1.667,0,0,0,10.333,65H17a1.667,1.667,0,0,0,1.667-1.667V61.667h6.667v1.667A1.667,1.667,0,0,0,27,65h6.667a1.667,1.667,0,0,0,1.667-1.667v-.452a26.834,26.834,0,0,0,4.018,5.452H5.333Zm23.333,40H32v3.333H28.667ZM27,55a1.667,1.667,0,0,0-1.667,1.667v1.667H18.667V56.667A1.667,1.667,0,0,0,17,55H15.333V51.667H17A1.667,1.667,0,0,0,18.667,50V43.333A1.667,1.667,0,0,0,17,41.667H15.333V38.333H28.667v3.333H27a1.667,1.667,0,0,0-1.667,1.667V50A1.667,1.667,0,0,0,27,51.667h5.085a26.426,26.426,0,0,0,.4,3.333ZM15.333,58.333v3.333H12V58.333Zm0-13.333v3.333H12V45ZM32,45v3.333H28.667V45ZM15.333,28.333V25H28.667v3.333ZM35.333,50A23.333,23.333,0,1,1,58.667,73.333,23.333,23.333,0,0,1,35.333,50Zm62.42,39.087A3.157,3.157,0,0,1,95.478,90a3.1,3.1,0,0,1-2.232-1.012L76.025,70.2a27.082,27.082,0,0,0,2.833-2.843l18.8,17.22a3.125,3.125,0,0,1,.1,4.5Z" transform="translate(-2 6.639)"/><path class="e" d="M44,24A20,20,0,1,0,64,44,20,20,0,0,0,44,24Zm0,36.667A16.667,16.667,0,1,1,60.667,44,16.667,16.667,0,0,1,44,60.667Z" transform="translate(12.667 12.639)"/><path class="e" d="M50.666,31h-5a1.667,1.667,0,1,0,0,3.333h.667l-5.542,4.433-2.278-2.278a1.667,1.667,0,0,0-2.357,0l-6.667,6.667a1.667,1.667,0,1,0,2.357,2.357l5.486-5.489,2.155,2.155a1.667,1.667,0,0,0,2.218.123L49,36.468v1.2a1.667,1.667,0,0,0,3.333,0v-5A1.667,1.667,0,0,0,50.666,31Z" transform="translate(16.001 17.305)"/><path class="e" d="M49.666,16.989H53v25a1.667,1.667,0,0,0,1.667,1.667h10a1.667,1.667,0,0,0,1.667-1.667v-25h3.333a1.667,1.667,0,0,0,1.265-2.75l-10-11.667a1.718,1.718,0,0,0-2.53,0l-10,11.667a1.667,1.667,0,0,0,1.265,2.75Zm10-10.773,6.377,7.44H64.666A1.667,1.667,0,0,0,63,15.322v25H56.333v-25a1.667,1.667,0,0,0-1.667-1.667H53.289Z" transform="translate(28.667 -2.017)"/></g></g></svg>