<svg xmlns="http://www.w3.org/2000/svg" width="100" height="100" viewBox="0 0 100 100"><defs><style>.a{fill:#3cb53f;}.b{fill:#5ec560;}.c{fill:#fff;}</style></defs><path class="a" d="M225.991,372.133l-1.5-.133a5,5,0,0,1-5.667,3.583l-11.333-2-2.85,1.766,15.85,3.567a5,5,0,0,0,5.5-6.783Zm0,0" transform="translate(-162.007 -294.5)"/><path class="a" d="M8,296H29.667v36.667H8Zm0,0" transform="translate(-6.333 -234.333)"/><path class="a" d="M112,312h10.417v30H112Zm0,0" transform="translate(-88.667 -247)"/><path class="a" d="M54.667,411.333A3.333,3.333,0,1,1,51.333,408,3.333,3.333,0,0,1,54.667,411.333Zm0,0" transform="translate(-38 -323)"/><path class="a" d="M202.067,392.042a39.761,39.761,0,0,1-14.85,2.867H162v5h31.383a10,10,0,0,0,6.75-2.633l8.634-7.917Zm0,0" transform="translate(-128.25 -308.243)"/><path class="b" d="M365,308.7a5,5,0,0,1,3.333-1.366V304H360v6.667h2.867Zm0,0" transform="translate(-285 -240.667)"/><path class="c" d="M240,136h15v13.333H240Zm0,0" transform="translate(-190 -107.667)"/><path class="a" d="M194.15,214l16.417,2.9a5,5,0,0,1,4.049,5.783.677.677,0,0,1-.133.483l5.116.45a3.333,3.333,0,0,0,2.533-.867L227,218.283V200.667A16.666,16.666,0,0,0,210.333,184h-1.667A16.666,16.666,0,0,0,192,200.667V214Zm0,0" transform="translate(-152 -145.667)"/><path class="a" d="M244.667,72a3.333,3.333,0,0,0-3.333,3.333,3.333,3.333,0,1,0-6.667,0,3.333,3.333,0,1,0-6.667,0V82a6.667,6.667,0,0,0,6.667,6.667h6.667A6.667,6.667,0,0,0,248,82V75.333A3.334,3.334,0,0,0,244.667,72Zm0,0" transform="translate(-180.5 -57)"/><path class="b" d="M223.333,152H240a3.333,3.333,0,0,1,0,6.667H223.333a3.333,3.333,0,0,1,0-6.667Zm0,0" transform="translate(-174.167 -120.333)"/><path class="b" d="M360,240h8.333v6.667H360Zm0,0" transform="translate(-285 -190)"/><g transform="translate(8.333 1.667)"><path class="a" d="M360,272h8.333v6.667H360Zm0,0" transform="translate(-293.333 -217)"/><path class="a" d="M377.667,208h6.667A1.667,1.667,0,0,1,386,209.667V213a1.667,1.667,0,0,1-1.667,1.667h-6.667A1.667,1.667,0,0,1,376,213v-3.333A1.667,1.667,0,0,1,377.667,208Zm0,0" transform="translate(-306 -166.333)"/><path class="a" d="M386,40.333V32L376,45.333h5v10h10v-4.6A13.335,13.335,0,0,1,386,40.333Zm0,0" transform="translate(-306 -27)"/><path class="a" d="M55,23V8L40,28h8.333V44.667H61.667V36.333A16.667,16.667,0,0,1,55,23Zm0,0" transform="translate(-40 -8)"/></g><path class="c" d="M85,115.9V102.333h1.667A3.333,3.333,0,0,0,90,99V95.667a3.333,3.333,0,0,0-3.333-3.333H80a3.333,3.333,0,0,0-3.333,3.333V99h-1.25a18.527,18.527,0,0,0-7.35-8.866,5,5,0,0,0-.75-9.233,8.338,8.338,0,0,0,1.85-5.234V69a4.992,4.992,0,0,0-8.333-3.717,5,5,0,0,0-6.667,0A4.992,4.992,0,0,0,45.833,69v6.667a8.338,8.338,0,0,0,1.85,5.234,5,5,0,0,0-.75,9.233,18.332,18.332,0,0,0-8.6,15.533v11.667H35.417v-1.667A1.667,1.667,0,0,0,33.75,114H25v-1.667a1.667,1.667,0,0,0-1.667-1.667H1.667A1.667,1.667,0,0,0,0,112.333V149a1.667,1.667,0,0,0,1.667,1.667H23.333A1.667,1.667,0,0,0,25,149v-1.667h8.75a1.667,1.667,0,0,0,1.667-1.667V144H65.133a11.668,11.668,0,0,0,7.883-3.066l14.666-13.451a6.782,6.782,0,0,0,.85-9.333A6.663,6.663,0,0,0,85,115.9Zm-6.117,1.567L76.667,119.5v-3.833h5v.267A6.659,6.659,0,0,0,78.883,117.467Zm2.783-5.133h-5V109h5ZM80,95.667h6.667V99H80Zm-3.333,6.667h5v3.333h-5ZM49.167,69A1.667,1.667,0,0,1,52.5,69a1.667,1.667,0,0,0,3.333,0,1.667,1.667,0,0,1,3.333,0A1.667,1.667,0,0,0,62.5,69a1.667,1.667,0,1,1,3.333,0v6.667a5,5,0,0,1-5,5H54.167a5,5,0,0,1-5-5Zm0,18.333a1.667,1.667,0,1,1,0-3.333H65.833a1.667,1.667,0,1,1,0,3.333Zm-7.5,18.333a15,15,0,0,1,15-15h1.667a15,15,0,0,1,15,15V122.55l-4.316,3.966a1.666,1.666,0,0,1-1.283.434l-3.333-.3a6.667,6.667,0,0,0-5.2-6.333V118.75a5.833,5.833,0,0,0-1.667-11.417,2.5,2.5,0,1,1,2.467-2.5,1.667,1.667,0,0,0,3.333,0,5.85,5.85,0,0,0-4.167-5.583V97.333a1.667,1.667,0,0,0-3.333,0V99.25A5.833,5.833,0,0,0,57.5,110.667a2.5,2.5,0,1,1-2.5,2.5,1.667,1.667,0,0,0-3.333,0,5.85,5.85,0,0,0,4.167,5.583v.967L42.5,117.367a.827.827,0,0,0-.283,0h-.55Zm-20,41.667H3.333V114H21.667ZM32.083,144H25V117.333h7.083Zm53.333-18.966L70.75,138.483a8.334,8.334,0,0,1-5.617,2.183H35.417v-20H42l16.333,2.867a3.332,3.332,0,0,1,2.65,3.8v.1a1.862,1.862,0,0,0-.116.433,3.333,3.333,0,0,1-3.717,2.167l-11.417-2.017a1.667,1.667,0,1,0-.583,3.283l11.417,2.017a7.009,7.009,0,0,0,1.167.1,6.665,6.665,0,0,0,5.883-3.55l3.867.334a5,5,0,0,0,3.783-1.2l9.867-9.067A3.448,3.448,0,0,1,83.117,119h.5a3.336,3.336,0,0,1,2.35,1.217,3.533,3.533,0,0,1-.534,4.817Zm0,0" transform="translate(0 -50.667)"/><path class="c" d="M45,400a5,5,0,1,0,5,5A5,5,0,0,0,45,400Zm0,6.667A1.667,1.667,0,1,1,46.667,405,1.667,1.667,0,0,1,45,406.667Zm0,0" transform="translate(-31.667 -316.667)"/><path class="c" d="M391,38,381,24.667a1.666,1.666,0,0,0-2.666,0L368.333,38a1.666,1.666,0,0,0,1.333,2.667H373V49a1.667,1.667,0,0,0,1.667,1.667h10A1.667,1.667,0,0,0,386.333,49V40.667h3.333A1.666,1.666,0,0,0,391,38Zm-6.333-.667A1.667,1.667,0,0,0,383,39v8.333h-6.667V39a1.667,1.667,0,0,0-1.667-1.667H373l6.667-8.883,6.667,8.883Zm0,0" transform="translate(-291.333 -19)"/><path class="c" d="M33.666,23.333h6.667v15A1.667,1.667,0,0,0,42,40h5v6.667a1.667,1.667,0,1,0,3.333,0V40h5A1.667,1.667,0,0,0,57,38.333v-15h6.667A1.666,1.666,0,0,0,65,20.666l-15-20a1.666,1.666,0,0,0-2.666,0l-15,20a1.666,1.666,0,0,0,1.333,2.667Zm15-18.883L60.333,20h-5a1.667,1.667,0,0,0-1.667,1.667v15H50.333v-10a1.667,1.667,0,1,0-3.333,0v10H43.666v-15A1.667,1.667,0,0,0,42,20H37Zm0,0" transform="translate(-25.333 0)"/></svg>